# xmcd
#
# Track frame offsets: 
#        183
#        13420
#        29488
#        47358
#        64043
#        80443
#        99930
#        118583
#        135068
#        152680
#
# Disc length: 2221 seconds
#
# Revision: 0
# Processed by: cddbd v1.5.1PL2 Copyright (c) Steve Scherf et al.
# Submitted via: ExactAudioCopy v0.95a3
#
DISCID=7008ab0a
DTITLE=The Goldens - Rush For Gold
DYEAR=1990
DGENRE=Country
TTITLE0=Take Me Back (To The Country)
TTITLE1=I Wouldn't Be Me Without You
TTITLE2=No Pain, No Gain
TTITLE3=Long Gone
TTITLE4=Little Piece Of Land
TTITLE5=Keep The Faith
TTITLE6=Call Home
TTITLE7=Rush For Gold
TTITLE8=Rhythm Of The River
TTITLE9=Lay Down Your Arms
EXTD=
EXTT0=
EXTT1=
EXTT2=
EXTT3=
EXTT4=
EXTT5=
EXTT6=
EXTT7=
EXTT8=
EXTT9=
PLAYORDER=
